<mxfile host="app.diagrams.net" modified="2023-07-12T17:37:45.524Z" agent="Mozilla/5.0 (Windows NT 10.0; Win64; x64) AppleWebKit/537.36 (KHTML, like Gecko) Chrome/114.0.0.0 Safari/537.36" etag="o8K4kywW3NGB2q_OWMfy" version="21.6.1" type="device">
  <diagram name="Page-1" id="G1v5tCgs0nusxL0S4AGg">
    <mxGraphModel dx="880" dy="484" grid="1" gridSize="10" guides="1" tooltips="1" connect="1" arrows="1" fold="1" page="1" pageScale="1" pageWidth="850" pageHeight="1100" math="0" shadow="0">
      <root>
        <mxCell id="0" />
        <mxCell id="1" parent="0" />
        <mxCell id="RNAvRF0daot_exFQyEj3-1" value="" style="ellipse;html=1;shape=startState;fillColor=#000000;strokeColor=#ff0000;" vertex="1" parent="1">
          <mxGeometry x="400" y="40" width="30" height="30" as="geometry" />
        </mxCell>
        <mxCell id="RNAvRF0daot_exFQyEj3-2" value="" style="edgeStyle=orthogonalEdgeStyle;html=1;verticalAlign=bottom;endArrow=open;endSize=8;strokeColor=#ff0000;rounded=0;entryX=0.5;entryY=0;entryDx=0;entryDy=0;" edge="1" source="RNAvRF0daot_exFQyEj3-1" parent="1" target="RNAvRF0daot_exFQyEj3-3">
          <mxGeometry relative="1" as="geometry">
            <mxPoint x="415" y="110" as="targetPoint" />
          </mxGeometry>
        </mxCell>
        <mxCell id="RNAvRF0daot_exFQyEj3-10" style="edgeStyle=orthogonalEdgeStyle;rounded=0;orthogonalLoop=1;jettySize=auto;html=1;exitX=0.5;exitY=1;exitDx=0;exitDy=0;entryX=0.5;entryY=0;entryDx=0;entryDy=0;" edge="1" parent="1" source="RNAvRF0daot_exFQyEj3-3" target="RNAvRF0daot_exFQyEj3-4">
          <mxGeometry relative="1" as="geometry" />
        </mxCell>
        <mxCell id="RNAvRF0daot_exFQyEj3-3" value="&lt;b&gt;Insert card&lt;/b&gt;" style="rounded=0;whiteSpace=wrap;html=1;fillColor=#dae8fc;strokeColor=#6c8ebf;" vertex="1" parent="1">
          <mxGeometry x="355" y="130" width="120" height="40" as="geometry" />
        </mxCell>
        <mxCell id="RNAvRF0daot_exFQyEj3-11" style="edgeStyle=orthogonalEdgeStyle;rounded=0;orthogonalLoop=1;jettySize=auto;html=1;exitX=0.5;exitY=1;exitDx=0;exitDy=0;entryX=0.5;entryY=0;entryDx=0;entryDy=0;" edge="1" parent="1" source="RNAvRF0daot_exFQyEj3-4" target="RNAvRF0daot_exFQyEj3-5">
          <mxGeometry relative="1" as="geometry" />
        </mxCell>
        <mxCell id="RNAvRF0daot_exFQyEj3-4" value="&lt;b&gt;Enter PIN&lt;/b&gt;" style="rounded=0;whiteSpace=wrap;html=1;fillColor=#d5e8d4;strokeColor=#82b366;" vertex="1" parent="1">
          <mxGeometry x="355" y="190" width="120" height="40" as="geometry" />
        </mxCell>
        <mxCell id="RNAvRF0daot_exFQyEj3-12" style="edgeStyle=orthogonalEdgeStyle;rounded=0;orthogonalLoop=1;jettySize=auto;html=1;exitX=0.5;exitY=1;exitDx=0;exitDy=0;entryX=0.5;entryY=0;entryDx=0;entryDy=0;" edge="1" parent="1" source="RNAvRF0daot_exFQyEj3-5" target="RNAvRF0daot_exFQyEj3-6">
          <mxGeometry relative="1" as="geometry" />
        </mxCell>
        <mxCell id="RNAvRF0daot_exFQyEj3-5" value="&lt;b&gt;Enter amount&lt;/b&gt;" style="rounded=0;whiteSpace=wrap;html=1;fillColor=#dae8fc;strokeColor=#6c8ebf;" vertex="1" parent="1">
          <mxGeometry x="355" y="250" width="120" height="40" as="geometry" />
        </mxCell>
        <mxCell id="RNAvRF0daot_exFQyEj3-13" style="edgeStyle=orthogonalEdgeStyle;rounded=0;orthogonalLoop=1;jettySize=auto;html=1;exitX=0.5;exitY=1;exitDx=0;exitDy=0;entryX=0.5;entryY=0;entryDx=0;entryDy=0;" edge="1" parent="1" source="RNAvRF0daot_exFQyEj3-6" target="RNAvRF0daot_exFQyEj3-7">
          <mxGeometry relative="1" as="geometry" />
        </mxCell>
        <mxCell id="RNAvRF0daot_exFQyEj3-14" style="edgeStyle=orthogonalEdgeStyle;rounded=0;orthogonalLoop=1;jettySize=auto;html=1;exitX=0.5;exitY=1;exitDx=0;exitDy=0;entryX=0.5;entryY=0;entryDx=0;entryDy=0;" edge="1" parent="1" source="RNAvRF0daot_exFQyEj3-6" target="RNAvRF0daot_exFQyEj3-9">
          <mxGeometry relative="1" as="geometry">
            <Array as="points">
              <mxPoint x="415" y="410" />
              <mxPoint x="270" y="410" />
            </Array>
          </mxGeometry>
        </mxCell>
        <mxCell id="RNAvRF0daot_exFQyEj3-15" style="edgeStyle=orthogonalEdgeStyle;rounded=0;orthogonalLoop=1;jettySize=auto;html=1;exitX=0.5;exitY=1;exitDx=0;exitDy=0;entryX=0.5;entryY=0;entryDx=0;entryDy=0;" edge="1" parent="1" source="RNAvRF0daot_exFQyEj3-6" target="RNAvRF0daot_exFQyEj3-8">
          <mxGeometry relative="1" as="geometry">
            <Array as="points">
              <mxPoint x="415" y="410" />
              <mxPoint x="560" y="410" />
            </Array>
          </mxGeometry>
        </mxCell>
        <mxCell id="RNAvRF0daot_exFQyEj3-18" style="edgeStyle=orthogonalEdgeStyle;rounded=0;orthogonalLoop=1;jettySize=auto;html=1;exitX=0;exitY=0.5;exitDx=0;exitDy=0;entryX=0.5;entryY=1;entryDx=0;entryDy=0;" edge="1" parent="1" source="RNAvRF0daot_exFQyEj3-6" target="RNAvRF0daot_exFQyEj3-16">
          <mxGeometry relative="1" as="geometry" />
        </mxCell>
        <mxCell id="RNAvRF0daot_exFQyEj3-6" value="" style="rhombus;whiteSpace=wrap;html=1;fillColor=#d5e8d4;strokeColor=#82b366;" vertex="1" parent="1">
          <mxGeometry x="375" y="320" width="80" height="80" as="geometry" />
        </mxCell>
        <mxCell id="RNAvRF0daot_exFQyEj3-22" style="edgeStyle=orthogonalEdgeStyle;rounded=0;orthogonalLoop=1;jettySize=auto;html=1;exitX=0.5;exitY=1;exitDx=0;exitDy=0;entryX=0.5;entryY=0;entryDx=0;entryDy=0;" edge="1" parent="1" source="RNAvRF0daot_exFQyEj3-7" target="RNAvRF0daot_exFQyEj3-21">
          <mxGeometry relative="1" as="geometry" />
        </mxCell>
        <mxCell id="RNAvRF0daot_exFQyEj3-7" value="&lt;b&gt;Dispatch cash&lt;/b&gt;" style="rounded=1;whiteSpace=wrap;html=1;fillColor=#dae8fc;strokeColor=#6c8ebf;" vertex="1" parent="1">
          <mxGeometry x="355" y="430" width="120" height="50" as="geometry" />
        </mxCell>
        <mxCell id="RNAvRF0daot_exFQyEj3-8" value="&lt;b&gt;Send SMS, Email&lt;/b&gt;" style="rounded=1;whiteSpace=wrap;html=1;fillColor=#d5e8d4;strokeColor=#82b366;" vertex="1" parent="1">
          <mxGeometry x="500" y="430" width="120" height="50" as="geometry" />
        </mxCell>
        <mxCell id="RNAvRF0daot_exFQyEj3-9" value="&lt;b&gt;Update balance&lt;/b&gt;" style="rounded=1;whiteSpace=wrap;html=1;fillColor=#d5e8d4;strokeColor=#82b366;" vertex="1" parent="1">
          <mxGeometry x="210" y="430" width="120" height="50" as="geometry" />
        </mxCell>
        <mxCell id="RNAvRF0daot_exFQyEj3-17" style="edgeStyle=orthogonalEdgeStyle;rounded=0;orthogonalLoop=1;jettySize=auto;html=1;exitX=0.5;exitY=0;exitDx=0;exitDy=0;entryX=0;entryY=0.5;entryDx=0;entryDy=0;" edge="1" parent="1" source="RNAvRF0daot_exFQyEj3-16" target="RNAvRF0daot_exFQyEj3-1">
          <mxGeometry relative="1" as="geometry" />
        </mxCell>
        <mxCell id="RNAvRF0daot_exFQyEj3-16" value="&lt;b&gt;Cancel transaction&lt;/b&gt;" style="rounded=1;whiteSpace=wrap;html=1;fillColor=#d5e8d4;strokeColor=#82b366;" vertex="1" parent="1">
          <mxGeometry x="160" y="190" width="120" height="50" as="geometry" />
        </mxCell>
        <mxCell id="RNAvRF0daot_exFQyEj3-19" value="Incorrect PIN&amp;nbsp;&lt;br&gt;or insufficient funds" style="text;html=1;align=center;verticalAlign=middle;resizable=0;points=[];autosize=1;strokeColor=none;fillColor=none;" vertex="1" parent="1">
          <mxGeometry x="160" y="360" width="130" height="40" as="geometry" />
        </mxCell>
        <mxCell id="RNAvRF0daot_exFQyEj3-20" value="Correct" style="text;html=1;align=center;verticalAlign=middle;resizable=0;points=[];autosize=1;strokeColor=none;fillColor=none;" vertex="1" parent="1">
          <mxGeometry x="430" y="378" width="60" height="30" as="geometry" />
        </mxCell>
        <mxCell id="RNAvRF0daot_exFQyEj3-21" value="" style="ellipse;html=1;shape=endState;fillColor=#000000;strokeColor=#ff0000;" vertex="1" parent="1">
          <mxGeometry x="400" y="500" width="30" height="30" as="geometry" />
        </mxCell>
      </root>
    </mxGraphModel>
  </diagram>
</mxfile>
